<svg width="16" height="16" viewBox="0 0 16 16" fill="none" xmlns="http://www.w3.org/2000/svg" class="octicon octicon-link">
  <path d="M6.14999 7.10657C5.96695 7.24161 5.73335 7.30945 5.44919 7.30945L3.83511 7.31073V5.61473H5.32695C5.46519 5.61409 5.60279 5.62625 5.73847 5.64993C5.87031 5.67361 5.98679 5.71585 6.08855 5.77665C6.19031 5.83745 6.27159 5.92257 6.33239 6.03073C6.39319 6.13889 6.42391 6.27777 6.42391 6.44673C6.42455 6.75137 6.33303 6.97089 6.14999 7.10657Z" fill="currentColor"/>
  <path d="M5.98743 10.3405C5.84087 10.3712 5.69111 10.3866 5.54071 10.3859L3.83511 10.3866V8.39617H5.57143C5.91639 8.39617 6.19415 8.47553 6.40407 8.63489C6.61399 8.79361 6.71895 9.05985 6.71895 9.43169C6.71895 9.62113 6.68631 9.77729 6.62231 9.89889C6.55767 10.0205 6.47127 10.1171 6.36311 10.1882C6.25495 10.2592 6.12951 10.3098 5.98743 10.3405Z" fill="currentColor"/>
  <path d="M11.1618 7.18785C11.5138 7.18785 11.7762 7.28257 11.949 7.47201C12.1212 7.66145 12.2415 7.93921 12.31 8.30401H9.96439C9.97079 8.20289 9.99319 8.08769 10.0303 7.95905C10.0674 7.83041 10.1314 7.70881 10.223 7.59361C10.3145 7.47841 10.4361 7.38241 10.5884 7.30433C10.7401 7.22689 10.9314 7.18785 11.1618 7.18785Z" fill="currentColor"/>
  <path fill-rule="evenodd" clip-rule="evenodd" d="M16 8C16 12.4183 12.4183 16 8 16C3.58172 16 0 12.4183 0 8C0 3.58172 3.58172 0 8 0C12.4183 0 16 3.58172 16 8ZM6.59671 4.46657C6.31191 4.40577 5.99703 4.37505 5.65207 4.37505H2.24023V11.6256H5.75447C6.07447 11.6262 6.39383 11.5853 6.70359 11.504C7.01143 11.4227 7.28535 11.2979 7.52599 11.1283C7.76663 10.9594 7.95799 10.7411 8.10007 10.4736C8.24215 10.2061 8.31319 9.88929 8.31319 9.52385C8.31319 9.07009 8.20311 8.68225 7.98295 8.36097C7.76279 8.03969 7.42935 7.81441 6.98263 7.68577C7.30711 7.53025 7.55287 7.33057 7.71863 7.08673C7.88439 6.84289 7.96759 6.53825 7.96759 6.17281C7.96759 5.83425 7.91191 5.55009 7.79991 5.31969C7.68791 5.08929 7.53047 4.90497 7.32759 4.76609C7.12471 4.62721 6.88151 4.52737 6.59671 4.46657ZM11.2534 10.5485C10.847 10.5485 10.5353 10.4435 10.319 10.2336C10.1026 10.0243 9.98423 9.68577 9.96439 9.22049H13.7519C13.7788 8.81409 13.7449 8.42497 13.6502 8.05249C13.5554 7.68001 13.4012 7.34849 13.1881 7.05729C12.975 6.76609 12.7023 6.53441 12.3708 6.36161C12.0386 6.18881 11.6495 6.10241 11.2028 6.10241C10.8034 6.10241 10.4393 6.17345 10.111 6.31553C9.78263 6.45761 9.49975 6.65217 9.26295 6.89921C9.02615 7.14625 8.84311 7.43873 8.71447 7.77729C8.58583 8.11585 8.52183 8.48129 8.52183 8.87361C8.52183 9.27937 8.58455 9.65185 8.70935 9.99041C8.83415 10.329 9.01207 10.6195 9.24247 10.8634C9.47287 11.1072 9.75383 11.2954 10.0854 11.4272C10.4169 11.559 10.7894 11.625 11.2022 11.625C11.798 11.625 12.3055 11.4893 12.7254 11.2186C13.1452 10.9478 13.4569 10.4979 13.6598 9.86817H12.3906C12.3433 10.0307 12.2146 10.185 12.0047 10.3302C11.7948 10.4755 11.5446 10.5485 11.2534 10.5485ZM12.6479 4.74305H9.71735V5.55585H12.6479V4.74305Z" fill="currentColor"/>
</svg>
