<svg width="16" height="16" viewBox="0 0 16 16" fill="none" xmlns="http://www.w3.org/2000/svg" class="octicon octicon-link">
    <path d="M13.5447 3.1319C12.5249 2.66398 11.4313 2.31923 10.2879 2.12178C10.2671 2.11797 10.2463 2.1275 10.2356 2.14654C10.0949 2.39669 9.93915 2.72302 9.83006 2.97952C8.60027 2.7954 7.37679 2.7954 6.17221 2.97952C6.0631 2.71732 5.90166 2.39669 5.76038 2.14654C5.74966 2.12813 5.72886 2.11861 5.70803 2.12178C4.56527 2.3186 3.47171 2.66335 2.45129 3.1319C2.44246 3.13571 2.43488 3.14206 2.42986 3.15031C0.355594 6.24922 -0.212633 9.27195 0.0661201 12.2572C0.0673814 12.2718 0.0755799 12.2858 0.086932 12.2947C1.45547 13.2997 2.78114 13.9098 4.08219 14.3143C4.10301 14.3206 4.12507 14.313 4.13832 14.2958C4.44608 13.8756 4.72043 13.4324 4.95565 12.9664C4.96953 12.9391 4.95628 12.9067 4.92791 12.8959C4.49275 12.7308 4.0784 12.5296 3.67982 12.301C3.64829 12.2826 3.64577 12.2375 3.67477 12.2159C3.75865 12.1531 3.84255 12.0877 3.92264 12.0217C3.93713 12.0096 3.95732 12.0071 3.97435 12.0147C6.59286 13.2102 9.4277 13.2102 12.0153 12.0147C12.0323 12.0064 12.0525 12.009 12.0677 12.021C12.1478 12.0871 12.2316 12.1531 12.3161 12.2159C12.3451 12.2375 12.3433 12.2826 12.3117 12.301C11.9131 12.534 11.4988 12.7308 11.063 12.8953C11.0346 12.9061 11.022 12.9391 11.0359 12.9664C11.2762 13.4318 11.5505 13.8749 11.8526 14.2952C11.8652 14.313 11.8879 14.3206 11.9087 14.3143C13.2161 13.9098 14.5417 13.2997 15.9103 12.2947C15.9223 12.2858 15.9298 12.2725 15.9311 12.2578C16.2647 8.80656 15.3723 5.80861 13.5655 3.15094C13.5611 3.14206 13.5535 3.13571 13.5447 3.1319ZM5.34668 10.4395C4.55833 10.4395 3.90875 9.71574 3.90875 8.82688C3.90875 7.93803 4.54574 7.21426 5.34668 7.21426C6.15392 7.21426 6.79721 7.94438 6.78459 8.82688C6.78459 9.71574 6.14761 10.4395 5.34668 10.4395ZM10.6632 10.4395C9.87484 10.4395 9.22526 9.71574 9.22526 8.82688C9.22526 7.93803 9.86222 7.21426 10.6632 7.21426C11.4704 7.21426 12.1137 7.94438 12.1011 8.82688C12.1011 9.71574 11.4704 10.4395 10.6632 10.4395Z" fill="currentColor"/>
</svg>
