<svg width="16" height="16" viewBox="0 0 16 16" fill="none" xmlns="http://www.w3.org/2000/svg" class="octicon octicon-link">
  <path fill-rule="evenodd" clip-rule="evenodd" d="M7.37727 1.24514H5.54069C4.52638 1.24514 3.70412 2.0674 3.70412 3.08171C3.70412 4.09602 4.52638 4.91828 5.54069 4.91828H7.37727V1.24514ZM7.37727 0H8.6224H10.459C12.161 0 13.5406 1.37972 13.5406 3.08171C13.5406 4.08609 13.0603 4.97825 12.3165 5.54085C13.0603 6.10347 13.5406 6.99563 13.5406 8.00001C13.5406 9.70198 12.161 11.0817 10.459 11.0817C9.7708 11.0817 9.13531 10.8561 8.6224 10.4749V11.0817V12.9183C8.6224 14.6203 7.24267 16 5.54069 16C3.83871 16 2.45898 14.6203 2.45898 12.9183C2.45898 11.9138 2.93946 11.0218 3.6831 10.4591C2.93946 9.89652 2.45898 9.00437 2.45898 8.00001C2.45898 6.99563 2.93947 6.10347 3.68313 5.54086C2.93947 4.97825 2.45898 4.08609 2.45898 3.08171C2.45898 1.37972 3.83871 0 5.54069 0H7.37727ZM8.6224 1.24514V4.91828H10.459C11.4733 4.91828 12.2955 4.09602 12.2955 3.08171C12.2955 2.0674 11.4733 1.24514 10.459 1.24514H8.6224ZM5.54069 9.83656H7.37727V8.00474V8.00001V7.99527V6.16343H5.54069C4.52638 6.16343 3.70412 6.98569 3.70412 8.00001C3.70412 9.01189 4.52245 9.83265 5.53341 9.83657L5.54069 9.83656ZM3.70412 12.9183C3.70412 11.9064 4.52245 11.0856 5.53341 11.0817L5.54069 11.0817H7.37727V12.9183C7.37727 13.9326 6.55501 14.7549 5.54069 14.7549C4.52638 14.7549 3.70412 13.9326 3.70412 12.9183ZM8.6224 7.99635C8.62438 6.98371 9.44589 6.16343 10.459 6.16343C11.4733 6.16343 12.2955 6.98569 12.2955 8.00001C12.2955 9.01432 11.4733 9.83658 10.459 9.83658C9.44589 9.83658 8.62438 9.0163 8.6224 8.00367V7.99635Z" fill="currentColor"/>
</svg>
