<svg width="16" height="16" viewBox="0 0 16 16" fill="none" xmlns="http://www.w3.org/2000/svg" class="octicon octicon-link">
  <path d="M2.08667 0.892004C1.38667 1.30667 0.0133333 2.88534 0 3.3V3.98667C0 4.85534 0.813333 5.62 1.55 5.62C2.43667 5.62 3.174 4.88534 3.174 4.01334C3.174 4.88534 3.88733 5.62 4.774 5.62C5.65933 5.62 6.34867 4.88534 6.34867 4.01334C6.34867 4.88534 7.10667 5.62 7.99267 5.62H8.00867C8.89533 5.62 9.65267 4.88534 9.65267 4.01334C9.65267 4.88534 10.342 5.62 11.228 5.62C12.1147 5.62 12.828 4.88534 12.828 4.01334C12.828 4.88534 13.5653 5.62 14.4513 5.62C15.1867 5.62 16 4.85467 16 3.98667V3.3C15.9867 2.88667 14.612 1.30667 13.9133 0.892004C11.7447 0.816004 10.2413 0.802671 8 0.803337C5.75867 0.803337 2.70333 0.838671 2.08667 0.892004ZM6.33733 5.21C6.25255 5.35767 6.14753 5.49276 6.02533 5.61134C5.692 5.938 5.232 6.14134 4.72733 6.14134C4.24135 6.14155 3.77464 5.95128 3.42733 5.61134C3.306 5.49267 3.214 5.36467 3.13 5.218C3.04533 5.366 2.928 5.49267 2.806 5.61134C2.45861 5.95116 1.99196 6.14141 1.506 6.14134C1.44467 6.14134 1.38133 6.12467 1.33 6.10667C1.25867 6.84867 1.22867 7.55734 1.218 8.07334V8.07667L1.214 8.85467C1.22733 10.4107 1.06067 13.8973 1.90067 14.7547C3.202 15.0573 5.59733 15.196 8.00067 15.1967C10.404 15.1967 12.7993 15.0567 14.1007 14.754C14.9407 13.898 14.774 10.4113 14.7873 8.85534L14.7833 8.07734V8.07467C14.7727 7.558 14.7433 6.84934 14.6713 6.108C14.62 6.12534 14.5567 6.14267 14.496 6.14267C14.01 6.14274 13.5434 5.95249 13.196 5.61267C13.0733 5.494 12.956 5.36734 12.872 5.21934C12.7873 5.366 12.6953 5.494 12.574 5.61267C12.2266 5.95237 11.7599 6.1424 11.274 6.142C10.7673 6.142 10.31 5.94 9.97533 5.61334C9.85314 5.49476 9.74812 5.35967 9.66333 5.212C9.57959 5.35947 9.4757 5.49455 9.35467 5.61334C9.00721 5.95297 8.54054 6.14299 8.05467 6.14267H7.948C7.46222 6.14317 6.99556 5.9534 6.648 5.614C6.52673 5.49526 6.42262 5.36018 6.33867 5.21267L6.33733 5.21ZM5.00133 6.938C5.53133 6.93934 6.00133 6.938 6.58333 7.57334C7.04133 7.52534 7.52067 7.50134 8 7.502C8.48 7.502 8.95867 7.52534 9.41667 7.57334C9.99867 6.938 10.4687 6.94 10.998 6.938C11.2487 6.938 12.2487 6.938 12.9447 8.894L13.6933 11.5793C14.248 13.576 13.516 13.6247 12.6027 13.626C11.2493 13.576 10.4987 12.5927 10.4987 11.6093C9.74933 11.732 8.87467 11.7933 8 11.794C7.12533 11.794 6.25067 11.732 5.50133 11.6093C5.50133 12.5927 4.75133 13.576 3.39733 13.6267C2.484 13.624 1.752 13.5753 2.30667 11.5787L3.05467 8.894C3.75133 6.938 4.75133 6.938 5.00133 6.938ZM8 8.476C7.99867 8.47734 6.57333 9.78534 6.318 10.2507L7.25133 10.2133V11.0267C7.25133 11.064 7.62467 11.0487 8 11.0313C8.37467 11.0487 8.74933 11.0647 8.74933 11.026V10.2127L9.68267 10.2493C9.42533 9.78467 8 8.476 8 8.476Z" fill="currentColor"/>
</svg>
