<svg width="16" height="16" viewBox="0 0 16 16" fill="none" xmlns="http://www.w3.org/2000/svg" class="octicon octicon-link">
  <path d="M0.421333 0.366667V15.6333H1.52V16H0V0H1.52V0.366667H0.421333ZM15.5787 15.6333V0.366667H14.48V0H16V16H14.48V15.6333H15.5787Z" fill="currentColor"/>
  <path d="M4.03289 4.21098V5.26316H4.06317C4.34677 4.86029 4.69002 4.55019 5.08834 4.33193C5.48574 4.10913 5.94738 4 6.46501 4C6.96061 4 7.41308 4.09731 7.82424 4.28555C8.23541 4.47471 8.5447 4.81482 8.76038 5.29317C8.9935 4.95305 9.31105 4.65113 9.70937 4.39104C10.1077 4.13004 10.5813 4 11.1283 4C11.544 4 11.9286 4.05093 12.2847 4.15187C12.6408 4.2519 12.9418 4.41196 13.196 4.63385C13.4493 4.85666 13.6448 5.14221 13.7889 5.49869C13.9284 5.85518 14 6.28351 14 6.78731V11.9964H11.8441V7.58486C11.8441 7.32477 11.835 7.0765 11.8148 6.84643C11.8 6.63756 11.7438 6.43361 11.6496 6.24622C11.558 6.07486 11.4184 5.93338 11.2476 5.83881C11.0695 5.73878 10.8281 5.68785 10.5271 5.68785C10.2224 5.68785 9.97644 5.74605 9.79013 5.85973C9.60676 5.97144 9.45514 6.12762 9.3496 6.31352C9.23909 6.50928 9.16714 6.72407 9.13759 6.94646C9.10223 7.18283 9.08383 7.42139 9.08252 7.66034V11.9964H6.92574V7.63124C6.92574 7.40025 6.92207 7.17381 6.90922 6.94737C6.9017 6.73293 6.85732 6.52134 6.77797 6.3217C6.70312 6.1331 6.56975 5.97293 6.39709 5.86427C6.21904 5.7506 5.96023 5.69149 5.61331 5.69149C5.51143 5.69149 5.3756 5.71331 5.2104 5.75878C5.0452 5.80516 4.88 5.88883 4.72398 6.01523C4.56704 6.14073 4.4312 6.3217 4.32107 6.55633C4.21094 6.79186 4.15587 7.10197 4.15587 7.48392V12H2V4.21098H4.03289Z" fill="currentColor"/>
</svg>
