<svg width="16" height="16" viewBox="0 0 16 16" fill="none" xmlns="http://www.w3.org/2000/svg" class="octicon octicon-link">
  <path d="M2.80667 6.44467e-06C2.43787 -0.0007845 2.07255 0.0712722 1.73167 0.21204C1.3908 0.352808 1.08108 0.559516 0.820296 0.820296C0.559516 1.08108 0.352808 1.3908 0.21204 1.73167C0.0712722 2.07255 -0.000784503 2.43787 6.44143e-06 2.80667V13.1933C-0.000784503 13.5621 0.0712722 13.9275 0.21204 14.2683C0.352808 14.6092 0.559516 14.9189 0.820296 15.1797C1.08108 15.4405 1.3908 15.6472 1.73167 15.788C2.07255 15.9287 2.43787 16.0008 2.80667 16H13.1933C13.5621 16.0008 13.9275 15.9287 14.2683 15.788C14.6092 15.6472 14.9189 15.4405 15.1797 15.1797C15.4405 14.9189 15.6472 14.6092 15.788 14.2683C15.9287 13.9275 16.0008 13.5621 16 13.1933V12.4647C15.9087 12.4733 15.8147 12.478 15.7187 12.478C14.0007 12.478 13.034 11.0473 12.992 9.25667C12.9895 9.0992 12.9944 8.94169 13.0067 8.78467C13.0687 7.99401 13.3233 7.29067 13.7433 6.77001C13.9925 6.45701 14.3109 6.20601 14.6733 6.03667C14.9853 5.87867 15.4247 5.79201 15.7827 5.79201H15.798C15.8653 5.79201 15.9327 5.79467 16 5.79867V2.80734C16.0009 2.43848 15.9289 2.07309 15.7882 1.73214C15.6474 1.39118 15.4407 1.08138 15.18 0.820531C14.9192 0.55968 14.6094 0.352913 14.2685 0.212103C13.9276 0.0712938 13.5622 -0.00078482 13.1933 6.44467e-06H2.80667ZM2.93867 3.72201H5.71534L8.10734 9.34534L10.5007 3.72201H13.0767V3.81934L13.064 3.82201C12.594 3.92867 12.3553 4.08667 12.3553 4.65801H12.3533L12.3553 11.5073C12.3953 11.958 12.638 12.0973 13.064 12.194L13.0773 12.1967V12.2933H9.79534V12.1967L9.80801 12.1933C10.234 12.0973 10.4707 11.958 10.5107 11.5067V4.84467L7.34734 12.278H7.17334L4.10001 5.04601V11.3427C4.10001 11.914 4.33867 12.072 4.80867 12.178L4.82201 12.1807V12.2787H2.93667V12.1807L2.94934 12.178C3.41934 12.0713 3.65934 11.9133 3.65934 11.3427V4.65801C3.65934 4.08667 3.42067 3.92867 2.95001 3.82201L2.93801 3.81934L2.93867 3.72201ZM15.772 6.16734C15.048 6.18267 14.6167 7.04934 14.5633 8.25001H16V6.19867C15.9256 6.17871 15.849 6.16819 15.772 6.16734ZM14.5307 8.58867C14.464 9.75934 15.104 10.748 16 11.0113V8.58867H14.5307Z" fill="currentColor" />
</svg>