<svg width="16" height="16" viewBox="0 0 16 16" fill="none" xmlns="http://www.w3.org/2000/svg" class="octicon octicon-link">
  <path d="M8.00028 12.9524C7.34074 12.9524 6.76931 12.8087 6.28599 12.5215C5.8044 12.2354 5.41936 11.8301 5.17468 11.3517C4.91455 10.8538 4.72412 10.3274 4.60802 9.78508C4.48483 9.19697 4.42482 8.59903 4.42885 8C4.42885 7.52566 4.4598 7.07223 4.5223 6.63863C4.58421 6.2056 4.69909 5.76537 4.86635 5.31856C5.03361 4.87174 5.24909 4.48436 5.51159 4.15585C5.78487 3.8193 6.13823 3.54536 6.54432 3.35522C6.97051 3.14997 7.45502 3.04762 8.00028 3.04762C8.65982 3.04762 9.23125 3.19124 9.71456 3.47847C10.1962 3.76457 10.5812 4.1699 10.8259 4.64834C11.0842 5.14082 11.2729 5.66303 11.3926 6.21491C11.5116 6.76629 11.5717 7.36171 11.5717 8C11.5717 8.47434 11.5407 8.92777 11.4783 9.36137C11.4116 9.81154 11.2939 10.2541 11.1271 10.6814C10.9545 11.1282 10.7402 11.5157 10.4818 11.8442C10.2235 12.1726 9.88182 12.4395 9.45622 12.6448C9.03062 12.8501 8.54554 12.9524 8.00028 12.9524ZM9.26102 9.31114C9.60256 8.96823 9.79256 8.49371 9.78599 8C9.78599 7.48989 9.61514 7.05286 9.27411 6.68886C8.93245 6.32486 8.50799 6.14286 8.00028 6.14286C7.49256 6.14286 7.06816 6.32486 6.72645 6.68886C6.39189 7.0356 6.20712 7.50886 6.21456 8C6.21456 8.51011 6.3854 8.94714 6.72645 9.31114C7.06816 9.67514 7.49256 9.85714 8.00028 9.85714C8.50799 9.85714 8.92828 9.67514 9.26102 9.31114ZM8.00028 15.4286C11.9449 15.4286 15.1431 12.1024 15.1431 8C15.1431 3.89757 11.9449 0.571429 8.00028 0.571429C4.05563 0.571429 0.857422 3.89757 0.857422 8C0.857422 12.1024 4.05563 15.4286 8.00028 15.4286Z" fill="currentColor"/>
</svg>
