<svg width="16" height="16" viewBox="0 0 16 16" fill="none" xmlns="http://www.w3.org/2000/svg" class="octicon octicon-link">
  <path d="M8.01153 0C3.59753 0 0.0195312 3.578 0.0195312 7.99133C0.0195312 11.3773 2.12486 14.2693 5.0982 15.4327C5.0282 14.8 4.96553 13.8307 5.12553 13.14C5.27153 12.5153 6.06286 9.16867 6.06286 9.16867C6.06286 9.16867 5.82353 8.68867 5.82353 7.98133C5.82353 6.87267 6.4682 6.04067 7.26886 6.04067C7.95153 6.04067 8.28086 6.55333 8.28086 7.166C8.28086 7.852 7.84553 8.87733 7.61953 9.82733C7.42953 10.6227 8.01953 11.2707 8.80287 11.2707C10.2215 11.2707 11.3149 9.774 11.3149 7.61267C11.3149 5.70533 9.93953 4.36667 7.9762 4.36667C5.70286 4.36667 4.3702 6.07467 4.3702 7.83267C4.3702 8.52133 4.63286 9.26133 4.96286 9.66C5.02886 9.74 5.03753 9.81 5.01953 9.89C4.95953 10.14 4.8242 10.6893 4.79686 10.7987C4.76153 10.9487 4.6822 10.9793 4.52953 10.9087C3.53286 10.4487 2.90753 8.99 2.90753 7.81133C2.90753 5.294 4.73953 2.97667 8.18753 2.97667C10.9595 2.97667 13.1155 4.95467 13.1155 7.592C13.1155 10.3487 11.3775 12.5667 8.9602 12.5667C8.15086 12.5667 7.39086 12.1473 7.12153 11.6473L6.6222 13.546C6.44286 14.2427 5.95286 15.114 5.62353 15.6433C6.3722 15.8733 7.16086 16 7.9902 16C12.3949 16 15.9802 12.4233 15.9802 8.00867C15.9802 3.59333 12.3949 0.0173333 7.9902 0.0173333L8.01153 0Z" fill="currentColor"/>
</svg>
