<svg width="16" height="16" viewBox="0 0 16 16" fill="none" xmlns="http://www.w3.org/2000/svg" class="octicon octicon-link">
  <path d="M5.88375 8.28938C6.20743 8.27374 6.56229 8.22999 6.70976 8.17001C7.70976 7.76001 7.78476 6.38501 6.83476 5.98001C6.58976 5.87501 6.52476 5.87001 5.90976 5.87001C5.83967 5.87001 5.77697 5.87001 5.72087 5.87136C5.24464 5.88284 5.2437 5.99173 5.23476 7.02501C5.22476 7.66001 5.22976 8.21001 5.24476 8.24001C5.26124 8.27848 5.42271 8.29546 5.63522 8.29565C5.71278 8.29572 5.79715 8.29356 5.88375 8.28938Z" fill="currentColor"/>
  <path fill-rule="evenodd" clip-rule="evenodd" d="M8.01 16C12.43 16 16.02 12.41 16.02 7.985C16.02 3.56 12.43 -0.0299988 8.01 -0.0299988C3.585 -0.0299988 0 3.56 0 7.985C0 12.41 3.585 16 8.01 16ZM9.17638 11.5397C9.38153 11.5342 9.52945 11.4915 9.57476 11.415C9.64976 11.285 9.57476 11.21 9.30976 11.14C8.88476 11.03 8.47476 10.67 7.71476 9.74501C7.42976 9.39501 6.96976 8.74001 6.96976 8.68001C6.96976 8.66001 7.08976 8.60001 7.23476 8.54501C7.54476 8.43001 7.94476 8.12001 8.14476 7.83001C8.59476 7.18501 8.51476 6.41501 7.94976 5.91001C7.44353 5.46003 7.07792 5.37476 5.36173 5.39881C5.2473 5.40041 5.12687 5.4025 5 5.405C4.99992 5.405 5.00008 5.405 5 5.405C4.95743 5.40578 4.91588 5.40655 4.8758 5.40729C4.4529 5.41514 4.16653 5.42114 3.97158 5.42868C3.59247 5.44335 3.55895 5.46382 3.53976 5.51501C3.49976 5.63501 3.59476 5.70501 3.89476 5.77001C4.01985 5.79737 4.11031 5.80708 4.17595 5.85258C4.36217 5.98168 4.34866 6.39891 4.35976 8.32501C4.36976 9.56501 4.36476 10.645 4.34476 10.725C4.30476 10.935 4.14476 11.06 3.83976 11.115C3.56976 11.165 3.49476 11.235 3.54476 11.38C3.56351 11.4363 3.61321 11.4531 4.15602 11.4538C4.33683 11.4541 4.57237 11.4525 4.87975 11.45C5.4128 11.4459 5.7292 11.4435 5.91671 11.4333C6.10876 11.4229 6.16573 11.4042 6.18263 11.3673C6.18976 11.3517 6.18976 11.3329 6.18976 11.31C6.18976 11.195 6.17476 11.18 5.97976 11.15C5.67414 11.0987 5.49642 11.0735 5.39171 10.9726C5.24117 10.8275 5.24155 10.5258 5.22976 9.76501C5.22068 9.07807 5.20244 8.83986 5.30363 8.76659C5.33099 8.74679 5.36707 8.73903 5.41441 8.73773C5.48131 8.73589 5.5707 8.74692 5.68976 8.75501C6.03976 8.78001 6.03976 8.78001 6.39976 9.32001C7.48476 10.93 7.90976 11.345 8.62476 11.485C8.8286 11.5262 9.01927 11.5439 9.17638 11.5397ZM10.5123 6.76773C10.4014 6.77034 10.2932 6.76306 10.1948 6.74501C9.41976 6.60001 9.16476 6.12501 9.20476 4.90501C9.22476 4.23001 9.27976 4.04501 9.53976 3.76501C9.74732 3.54165 10.0933 3.42824 10.4492 3.41972C10.882 3.40936 11.3293 3.55416 11.5598 3.84501C11.7398 4.07001 11.7248 4.14001 11.4748 4.21501C11.4041 4.23857 11.359 4.25359 11.3217 4.25459C11.3119 4.25486 11.3025 4.25414 11.2935 4.25235C11.242 4.24222 11.1973 4.19753 11.0998 4.10001C10.928 3.93428 10.7055 3.86005 10.4929 3.86543C10.1794 3.87336 9.88721 4.05424 9.80976 4.37001C9.74476 4.60501 9.74976 5.60001 9.81476 5.82501C9.90398 6.14875 10.2219 6.30744 10.5361 6.30107C10.8381 6.29495 11.1365 6.13626 11.2248 5.82501C11.3348 5.42001 11.3098 5.39001 10.8248 5.36501C10.6998 5.35969 10.6413 5.3572 10.6139 5.32673C10.5898 5.29989 10.5898 5.25133 10.5898 5.16001C10.5898 5.01078 10.5898 4.97876 10.8611 4.96462C10.9137 4.96188 10.9764 4.95981 11.0514 4.95769C11.0821 4.95682 11.1148 4.95594 11.1498 4.95501M10.5123 6.76773C10.7394 6.76239 10.9783 6.71563 11.1698 6.63501C11.6048 6.44501 11.7848 6.12501 11.8298 5.46001C11.8455 5.22118 11.8562 5.09201 11.7969 5.02353C11.7426 4.96093 11.6299 4.94904 11.409 4.95049C11.3353 4.95098 11.2493 4.95295 11.1498 4.95501" fill="currentColor"/>
</svg>
