<svg width="16" height="16" viewBox="0 0 16 16" fill="none" xmlns="http://www.w3.org/2000/svg" class="octicon octicon-link">
  <path d="M7.99994 0.0263824C3.59527 0.0263824 0.0244141 3.59714 0.0244141 8.00181C0.0244141 12.4067 3.59527 15.9771 7.99994 15.9771C12.4051 15.9771 15.9756 12.4067 15.9756 8.00181C15.9756 3.59743 12.4051 0.0267634 7.99984 0.0267634L7.99994 0.0263824ZM11.6575 11.5292C11.5146 11.7635 11.2079 11.8378 10.9737 11.694C9.10108 10.5502 6.74375 10.2911 3.96756 10.9254C3.70003 10.9864 3.43337 10.8188 3.37241 10.5511C3.31118 10.2835 3.47813 10.0169 3.74632 9.95591C6.78441 9.26153 9.39041 9.56067 11.4927 10.8454C11.727 10.9892 11.8013 11.295 11.6575 11.5292ZM12.6337 9.35733C12.4537 9.65019 12.0708 9.74257 11.7784 9.56257C9.6346 8.24457 6.3667 7.86295 3.83099 8.63267C3.50213 8.732 3.1548 8.54667 3.05499 8.21838C2.95594 7.88953 3.14137 7.54286 3.46965 7.44286C6.36613 6.564 9.96699 6.98972 12.4289 8.50257C12.7213 8.68257 12.8137 9.06533 12.6337 9.35733ZM12.7175 7.096C10.147 5.56924 5.90603 5.42886 3.45184 6.17372C3.05775 6.29324 2.64099 6.07076 2.52156 5.67667C2.40213 5.28238 2.62441 4.86591 3.0188 4.7461C5.83603 3.89086 10.5194 4.0561 13.4788 5.81295C13.834 6.02333 13.9502 6.48114 13.7397 6.83514C13.5302 7.18962 13.0712 7.30648 12.7178 7.096H12.7175Z" fill="currentColor"/>
</svg>
