<svg width="16" height="16" viewBox="0 0 16 16" fill="none" xmlns="http://www.w3.org/2000/svg" class="octicon octicon-link">
  <path d="M0.454119 10.2979C1.43779 13.5263 4.43972 15.8769 7.98982 15.8769C12.3401 15.8769 15.8667 12.3503 15.8667 8C15.8667 3.64972 12.3401 0.123077 7.98982 0.123077C3.81554 0.123077 0.399667 3.37058 0.129883 7.47668C0.13098 7.47852 0.132076 7.48035 0.13317 7.48219L4.36583 9.22585C4.48155 9.14753 4.60513 9.08153 4.73457 9.02892C5.03193 8.90659 5.34504 8.85169 5.65716 8.86597L7.58454 6.06597L7.5838 6.02708H7.58134C7.58134 4.3744 8.92362 3.0304 10.5733 3.0304C12.2263 3.03385 13.5653 4.3744 13.5653 6.02708C13.5653 7.67976 12.2238 9.02523 10.5733 9.02523L10.5056 9.024L7.75045 10.9945C7.75841 11.303 7.70103 11.6096 7.58208 11.8944C7.35912 12.429 6.93309 12.8532 6.39757 13.0739C5.86206 13.2946 5.26084 13.2938 4.72596 13.0715C4.04608 12.7884 3.58331 12.1996 3.43562 11.5281L0.454119 10.2979Z" fill="currentColor"/>
  <path d="M4.91722 12.6102C5.77556 12.9679 6.76313 12.5625 7.12104 11.7009H7.11907C7.29187 11.2859 7.29285 10.8263 7.12153 10.4096C6.9502 9.99286 6.6302 9.66695 6.21174 9.49391C5.7987 9.32234 5.3571 9.32726 4.96867 9.47496L5.9779 9.89219C6.28186 10.0192 6.52298 10.2617 6.64829 10.5663C6.7736 10.871 6.77285 11.2129 6.6462 11.517C6.58366 11.6676 6.49208 11.8043 6.37668 11.9194C6.26129 12.0345 6.12435 12.1257 5.97368 12.1878C5.82301 12.25 5.66157 12.2819 5.49859 12.2816C5.33561 12.2813 5.17427 12.249 5.0238 12.1863L4.04977 11.7826C4.22759 12.1556 4.53632 12.4501 4.91722 12.6102Z" fill="currentColor"/>
  <path fill-rule="evenodd" clip-rule="evenodd" d="M9.16681 7.43789C9.54044 7.8122 10.0472 8.02318 10.576 8.02462C11.105 8.02331 11.6119 7.81239 11.9856 7.43806C12.3593 7.06374 12.5694 6.55653 12.5699 6.02757C12.5693 5.4987 12.3591 4.99162 11.9854 4.6174C11.6117 4.24317 11.1049 4.03232 10.576 4.03102C10.0473 4.03245 9.5406 4.24336 9.16699 4.61757C8.79338 4.99178 8.58328 5.49879 8.5827 6.02757C8.58315 6.55644 8.79319 7.06358 9.16681 7.43789ZM9.52015 4.96444C9.23952 5.24576 9.08206 5.627 9.08239 6.02437C9.08219 6.4217 9.23949 6.80285 9.52017 7.08407C9.80084 7.3653 10.1817 7.5236 10.579 7.52419C10.9765 7.5238 11.3575 7.36558 11.6383 7.08433C11.9192 6.80309 12.0768 6.42182 12.0766 6.02437C12.0766 5.19606 11.4049 4.52406 10.579 4.52406C10.1816 4.52472 9.80079 4.68311 9.52015 4.96444Z" fill="currentColor"/>
</svg>
