<svg width="16" height="16" viewBox="0 0 16 16" fill="none" xmlns="http://www.w3.org/2000/svg" class="octicon octicon-link">
    <path d="M1.68404 7.17181C5.53666 5.49868 8.1014 4.38692 9.38928 3.84755C13.0548 2.31752 13.8253 2.05334 14.3206 2.04233C14.4307 2.04233 14.6729 2.06434 14.838 2.19643C14.9701 2.30651 15.0031 2.44961 15.0251 2.55968C15.0471 2.66975 15.0691 2.90091 15.0471 3.07703C14.849 5.16845 13.9904 10.2429 13.5501 12.5765C13.363 13.5672 12.9997 13.8974 12.6475 13.9304C11.877 13.9964 11.2936 13.4241 10.5561 12.9397C9.38928 12.1802 8.73984 11.7069 7.60607 10.9584C6.29618 10.0998 7.14375 9.62648 7.89226 8.85596C8.0904 8.65782 11.4697 5.57573 11.5357 5.30054C11.5467 5.26752 11.5467 5.13543 11.4697 5.06938C11.3926 5.00334 11.2826 5.02535 11.1945 5.04737C11.0734 5.06938 9.22417 6.30222 5.62472 8.73487C5.09636 9.09812 4.62304 9.27424 4.19375 9.26323C3.72043 9.25223 2.81781 8.99905 2.13535 8.7789C1.30979 8.51472 0.649342 8.37163 0.704379 7.90931C0.737402 7.66715 1.06763 7.42498 1.68404 7.17181Z" fill="currentColor"/>
</svg>
