<svg width="16" height="16" viewBox="0 0 16 16" fill="none" xmlns="http://www.w3.org/2000/svg" class="octicon octicon-link">
  <path d="M11.7944 7.41569C11.7255 7.38266 11.6555 7.35087 11.5846 7.32043C11.4611 5.04485 10.2177 3.74208 8.12983 3.72875C8.12037 3.72869 8.11097 3.72869 8.10151 3.72869C6.85271 3.72869 5.8141 4.26174 5.17484 5.23173L6.32309 6.0194C6.80064 5.29486 7.55011 5.1404 8.10206 5.1404C8.10843 5.1404 8.11483 5.1404 8.12114 5.14046C8.80859 5.14484 9.32734 5.34472 9.66309 5.7345C9.90742 6.01828 10.0708 6.41042 10.1518 6.90532C9.54226 6.80173 8.88309 6.76987 8.17842 6.81027C6.1934 6.92462 4.91727 8.08233 5.00297 9.691C5.04647 10.507 5.45298 11.209 6.14759 11.6676C6.73487 12.0553 7.49126 12.2448 8.27737 12.2019C9.31551 12.145 10.1299 11.7489 10.6981 11.0247C11.1296 10.4747 11.4025 9.76192 11.523 8.86383C12.0178 9.16242 12.3844 9.55533 12.5869 10.0277C12.9313 10.8306 12.9513 12.15 11.8748 13.2257C10.9315 14.168 9.79767 14.5757 8.08413 14.5883C6.18336 14.5742 4.74582 13.9646 3.81118 12.7764C2.93597 11.6638 2.48365 10.0568 2.46677 8C2.48365 5.94315 2.93597 4.33613 3.81118 3.22356C4.74582 2.03541 6.18333 1.42583 8.08411 1.41171C9.99867 1.42594 11.4613 2.03845 12.4317 3.23233C12.9075 3.8178 13.2663 4.55407 13.5028 5.41253L14.8483 5.05352C14.5617 3.99685 14.1106 3.08631 13.4968 2.33117C12.2527 0.800557 10.4332 0.0162623 8.0888 0H8.07942C5.73981 0.0162058 3.94068 0.803483 2.73203 2.33994C1.6565 3.7072 1.10171 5.60964 1.08307 7.99438L1.08301 8L1.08307 8.00563C1.10171 10.3903 1.6565 12.2928 2.73203 13.6601C3.94068 15.1965 5.73981 15.9838 8.07942 16H8.0888C10.1688 15.9856 11.635 15.441 12.8428 14.2343C14.4231 12.6555 14.3755 10.6766 13.8547 9.46175C13.481 8.59058 12.7686 7.88302 11.7944 7.41569ZM8.20305 10.7923C7.33305 10.8413 6.42921 10.4508 6.38464 9.61433C6.35161 8.99417 6.82599 8.30217 8.25644 8.21973C8.42026 8.21028 8.58101 8.20567 8.73892 8.20567C9.25851 8.20567 9.74459 8.25614 10.1865 8.35275C10.0217 10.4113 9.05484 10.7455 8.20305 10.7923Z" fill="currentColor"/>
</svg>
