<svg width="16" height="16" viewBox="0 0 16 16" fill="none" xmlns="http://www.w3.org/2000/svg" class="octicon octicon-link">
  <path d="M8.35041 0.0133333C9.22374 0 10.0904 0.00666667 10.9571 0C11.0104 1.02 11.3771 2.06 12.1237 2.78C12.8704 3.52 13.9237 3.86 14.9504 3.97333V6.66C13.9904 6.62667 13.0237 6.42667 12.1504 6.01333C11.7704 5.84 11.4171 5.62 11.0704 5.39333C11.0637 7.34 11.0771 9.28667 11.0571 11.2267C11.0037 12.16 10.6971 13.0867 10.1571 13.8533C9.28374 15.1333 7.77041 15.9667 6.21707 15.9933C5.26374 16.0467 4.31041 15.7867 3.49707 15.3067C2.15041 14.5133 1.20374 13.06 1.06374 11.5C1.05041 11.1667 1.04374 10.8333 1.05707 10.5067C1.17707 9.24 1.80374 8.02667 2.77707 7.2C3.88374 6.24 5.43041 5.78 6.87707 6.05333C6.89041 7.04 6.85041 8.02667 6.85041 9.01333C6.19041 8.8 5.41707 8.86 4.83707 9.26C4.41707 9.53333 4.09707 9.95333 3.93041 10.4267C3.79041 10.7667 3.83041 11.14 3.83707 11.5C3.99707 12.5933 5.05041 13.5133 6.17041 13.4133C6.91707 13.4067 7.63041 12.9733 8.01707 12.34C8.14374 12.12 8.28374 11.8933 8.29041 11.6333C8.35707 10.44 8.33041 9.25333 8.33707 8.06C8.34374 5.37333 8.33041 2.69333 8.35041 0.0133333Z" fill="currentColor"/>
</svg>
